<svg xmlns="http://www.w3.org/2000/svg" width="94" height="19" viewBox="0 0 94 19">
  <g id="Grupo_13" data-name="Grupo 13" transform="translate(-224 -484)">
    <text id="Dialca_hn" transform="translate(283 499)" fill="#fff" font-size="14" font-family="LexendDeca-Regular, Lexend Deca"><tspan x="-34.629" y="0">Dialca_hn</tspan></text>
    <path id="facebook-brands.264aa4a8" d="M27.116,17.558A9.558,9.558,0,1,0,16.064,27V20.321H13.636V17.558h2.428V15.452a3.372,3.372,0,0,1,3.61-3.718,14.709,14.709,0,0,1,2.14.187v2.351H20.609a1.381,1.381,0,0,0-1.557,1.493v1.794H21.7l-.424,2.763H19.051V27A9.561,9.561,0,0,0,27.116,17.558Z" transform="translate(216 476)" fill="#fff"/>
  </g>
</svg>
