<svg id="Grupo_6" data-name="Grupo 6" xmlns="http://www.w3.org/2000/svg" width="167" height="76.242" viewBox="0 0 167 76.242">
  <g id="Grupo_1" data-name="Grupo 1" transform="translate(33.637 23.503)">
    <path id="Trazado_1" data-name="Trazado 1" d="M-1260.467,1434.984h8.685c7.079,0,11.523,4.506,11.523,11.763,0,8.83-5.562,15.47-15.091,15.47h-10.2Zm.258,23.381h4.925c6.433,0,10.117-4.6,10.128-11.524.01-5.1-2.581-8.008-7.262-8.009h-4.146Z" transform="translate(1265.552 -1434.565)" fill="#fff"/>
    <path id="Trazado_2" data-name="Trazado 2" d="M-1201.35,1434.984l-5.084,27.233h-4.624l5.085-27.233Z" transform="translate(1239.072 -1434.565)" fill="#fff"/>
    <path id="Trazado_3" data-name="Trazado 3" d="M-1185.623,1454.982l-3.72,7.236h-4.865l14.232-27.233h5.784l4.531,27.233h-4.694l-1.205-7.236Zm9.68-3.918c-.957-6.079-1.543-10.08-1.749-12.372h-.039c-1.122,2.522-3.323,6.976-6.074,12.372Z" transform="translate(1230.884 -1434.565)" fill="#fff"/>
    <path id="Trazado_4" data-name="Trazado 4" d="M-1134.634,1434.984h4.623l-4.356,23.315h13.332l-1.257,3.918h-17.427Z" transform="translate(1204.406 -1434.565)" fill="#fff"/>
    <path id="Trazado_5" data-name="Trazado 5" d="M-1076.933,1453.512c-1.8,5.385-5.569,8.7-12.071,8.7-6.955,0-10.375-4.659-10.375-11.375,0-7.6,4.316-16.673,14.04-16.673,6.087,0,9.7,3.425,9.987,8.9h-4.814c-.255-2.673-1.659-5.074-5.625-5.074-5.786,0-8.652,6.727-8.652,12.75,0,4.181,1.58,7.641,5.936,7.641,3.407,0,5.387-1.853,6.718-4.877Z" transform="translate(1184.804 -1434.169)" fill="#fff"/>
    <path id="Trazado_6" data-name="Trazado 6" d="M-1045.294,1454.982l-3.719,7.236h-4.865l14.233-27.233h5.783l4.531,27.233h-4.694l-1.205-7.236Zm9.681-3.918c-.957-6.079-1.543-10.08-1.749-12.372h-.039c-1.122,2.522-3.323,6.976-6.074,12.372Z" transform="translate(1162.694 -1434.565)" fill="#fff"/>
  </g>
  <g id="Grupo_2" data-name="Grupo 2" transform="translate(74.503 56.549)">
    <path id="Trazado_7" data-name="Trazado 7" d="M-1185.372,1498.562h1.065a1.446,1.446,0,0,1,1.522,1.582,1.938,1.938,0,0,1-2,2.1h-1.275Zm-.253,3.352h.821a1.583,1.583,0,0,0,1.625-1.765,1.12,1.12,0,0,0-1.18-1.262h-.7Z" transform="translate(1186.058 -1498.506)" fill="#fff"/>
    <path id="Trazado_8" data-name="Trazado 8" d="M-1177.743,1498.562l-.686,3.679h-.371l.686-3.679Z" transform="translate(1182.531 -1498.506)" fill="#fff"/>
    <path id="Trazado_9" data-name="Trazado 9" d="M-1175.92,1501.138a.827.827,0,0,0,.932.787c.516,0,.877-.246.877-.724,0-.357-.164-.579-.815-.813-.692-.246-.937-.493-.937-.935a1.026,1.026,0,0,1,1.169-1c.835,0,1.146.5,1.152,1h-.367a.709.709,0,0,0-.819-.679c-.5,0-.753.3-.753.637,0,.286.134.45.728.659.808.28,1.031.617,1.031,1.078,0,.584-.389,1.095-1.307,1.095a1.12,1.12,0,0,1-1.267-1.105Z" transform="translate(1181.314 -1498.453)" fill="#fff"/>
    <path id="Trazado_10" data-name="Trazado 10" d="M-1169.006,1498.891h-1.17l.063-.329h2.717l-.063.329h-1.178l-.62,3.349h-.372Z" transform="translate(1178.34 -1498.506)" fill="#fff"/>
    <path id="Trazado_11" data-name="Trazado 11" d="M-1164.3,1500.558l-.311,1.682h-.37l.686-3.679h1.221c.673,0,1.019.359,1.019.887a.929.929,0,0,1-.79.969c.237.08.519.314.4.941v.015a3.97,3.97,0,0,0-.12.867h-.354a3.038,3.038,0,0,1,.106-.852v-.009c.1-.565-.063-.822-.664-.822Zm.063-.325h.782c.617,0,1.016-.207,1.016-.746,0-.4-.25-.6-.7-.6h-.846Z" transform="translate(1175.815 -1498.506)" fill="#fff"/>
    <path id="Trazado_12" data-name="Trazado 12" d="M-1157.576,1498.562l-.686,3.679h-.371l.686-3.679Z" transform="translate(1172.731 -1498.506)" fill="#fff"/>
    <path id="Trazado_13" data-name="Trazado 13" d="M-1155.3,1498.562h1.186c.734,0,1.018.4,1.018.859a.875.875,0,0,1-.707.882.816.816,0,0,1,.571.8c0,.8-.625,1.14-1.378,1.14h-1.377Zm-.264,3.357h.976c.516,0,.965-.236.969-.8,0-.4-.265-.682-.846-.682h-.821Zm1.185-1.8c.542,0,.9-.189.9-.675,0-.394-.282-.559-.7-.559h-.81l-.23,1.235Z" transform="translate(1171.445 -1498.506)" fill="#fff"/>
    <path id="Trazado_14" data-name="Trazado 14" d="M-1148.47,1498.562l-.421,2.232c-.166.889.269,1.171.82,1.171.692,0,.964-.317,1.121-1.173l.422-2.23h.373l-.425,2.254c-.2,1.092-.6,1.474-1.529,1.474-.8,0-1.354-.427-1.153-1.5l.419-2.224Z" transform="translate(1168.198 -1498.506)" fill="#fff"/>
    <path id="Trazado_15" data-name="Trazado 15" d="M-1141.594,1498.562l-.686,3.679h-.372l.686-3.679Z" transform="translate(1164.965 -1498.506)" fill="#fff"/>
    <path id="Trazado_16" data-name="Trazado 16" d="M-1139.318,1498.562h1.065a1.446,1.446,0,0,1,1.522,1.582,1.937,1.937,0,0,1-2,2.1H-1140Zm-.253,3.352h.82a1.583,1.583,0,0,0,1.625-1.765,1.119,1.119,0,0,0-1.179-1.262h-.7Z" transform="translate(1163.679 -1498.506)" fill="#fff"/>
    <path id="Trazado_17" data-name="Trazado 17" d="M-1129.322,1500.023a2,2,0,0,1-1.884,2.22,1.38,1.38,0,0,1-1.406-1.544,2.045,2.045,0,0,1,1.878-2.247A1.38,1.38,0,0,1-1129.322,1500.023Zm-2.9.663c0,.679.336,1.231,1.064,1.231.972,0,1.452-.969,1.452-1.9,0-.734-.363-1.238-1.054-1.238C-1131.742,1498.779-1132.224,1499.8-1132.224,1500.687Z" transform="translate(1160.087 -1498.453)" fill="#fff"/>
    <path id="Trazado_18" data-name="Trazado 18" d="M-1124.652,1500.558l-.31,1.682h-.37l.686-3.679h1.221c.673,0,1.019.359,1.019.887a.929.929,0,0,1-.79.969c.238.08.519.314.4.941v.015a3.983,3.983,0,0,0-.12.867h-.354a3.032,3.032,0,0,1,.106-.852v-.009c.1-.565-.063-.822-.664-.822Zm.063-.325h.782c.617,0,1.016-.207,1.016-.746,0-.4-.25-.6-.7-.6h-.846Z" transform="translate(1156.55 -1498.506)" fill="#fff"/>
    <path id="Trazado_19" data-name="Trazado 19" d="M-1118.534,1501.041l-.635,1.2h-.4l1.977-3.679h.438l.677,3.679h-.378l-.217-1.2Zm1.416-.329c-.174-.935-.276-1.525-.309-1.8h-.005c-.146.31-.481.953-.933,1.8Z" transform="translate(1153.747 -1498.506)" fill="#fff"/>
    <path id="Trazado_20" data-name="Trazado 20" d="M-1109.655,1498.562h1.065a1.446,1.446,0,0,1,1.523,1.582,1.938,1.938,0,0,1-2,2.1h-1.276Zm-.253,3.352h.821a1.583,1.583,0,0,0,1.625-1.765,1.119,1.119,0,0,0-1.179-1.262h-.7Z" transform="translate(1149.265 -1498.506)" fill="#fff"/>
    <path id="Trazado_21" data-name="Trazado 21" d="M-1100.634,1500.461h-1.759l-.267,1.451h2l-.113.329h-2.321l.686-3.679h2.226l-.059.329h-1.857l-.236,1.24h1.759Z" transform="translate(1145.742 -1498.506)" fill="#fff"/>
    <path id="Trazado_22" data-name="Trazado 22" d="M-1094.209,1501.041l-.635,1.2h-.4l1.977-3.679h.438l.676,3.679h-.378l-.217-1.2Zm1.416-.329c-.174-.935-.276-1.525-.31-1.8h0c-.146.31-.481.953-.933,1.8Z" transform="translate(1141.927 -1498.506)" fill="#fff"/>
    <path id="Trazado_23" data-name="Trazado 23" d="M-1087.484,1498.562h.372l-.627,3.35h1.872l-.107.329h-2.2Z" transform="translate(1138.491 -1498.506)" fill="#fff"/>
    <path id="Trazado_24" data-name="Trazado 24" d="M-1081.8,1498.562l-.686,3.679h-.371l.686-3.679Z" transform="translate(1135.909 -1498.506)" fill="#fff"/>
    <path id="Trazado_25" data-name="Trazado 25" d="M-1076.84,1500.614c.13-.7.268-1.393.355-1.771h-.016c-.227.51-1.2,2.253-1.832,3.4h-.347c-.151-.925-.5-3-.54-3.4h-.012c-.049.4-.2,1.252-.318,1.882l-.279,1.521h-.361l.686-3.679h.559c.206,1.164.486,2.765.527,3.2h.009c.147-.32,1.122-2.048,1.761-3.2h.563l-.686,3.679h-.372Z" transform="translate(1134.614 -1498.506)" fill="#fff"/>
    <path id="Trazado_26" data-name="Trazado 26" d="M-1069.14,1500.461h-1.758l-.268,1.451h2l-.114.329h-2.32l.686-3.679h2.226l-.059.329h-1.857l-.236,1.24h1.759Z" transform="translate(1130.438 -1498.506)" fill="#fff"/>
    <path id="Trazado_27" data-name="Trazado 27" d="M-1065.779,1502.24l.686-3.679h.479c.373.875,1.228,2.856,1.356,3.236h.006c.053-.465.185-1.093.3-1.693l.289-1.543h.36l-.686,3.679h-.455c-.34-.8-1.226-2.9-1.371-3.3h-.006c-.062.476-.175,1.052-.3,1.717l-.294,1.588Z" transform="translate(1127.611 -1498.506)" fill="#fff"/>
    <path id="Trazado_28" data-name="Trazado 28" d="M-1056.927,1498.891h-1.171l.062-.329h2.718l-.063.329h-1.178l-.62,3.349h-.372Z" transform="translate(1123.879 -1498.506)" fill="#fff"/>
    <path id="Trazado_29" data-name="Trazado 29" d="M-1049.529,1500.023a2,2,0,0,1-1.884,2.22,1.38,1.38,0,0,1-1.406-1.544,2.045,2.045,0,0,1,1.878-2.247A1.379,1.379,0,0,1-1049.529,1500.023Zm-2.9.663c0,.679.336,1.231,1.064,1.231.972,0,1.452-.969,1.452-1.9,0-.734-.363-1.238-1.054-1.238C-1051.949,1498.779-1052.431,1499.8-1052.431,1500.687Z" transform="translate(1121.313 -1498.453)" fill="#fff"/>
    <path id="Trazado_30" data-name="Trazado 30" d="M-1045.337,1501.138a.828.828,0,0,0,.933.787c.515,0,.876-.246.876-.724,0-.357-.165-.579-.814-.813-.693-.246-.937-.493-.937-.935a1.026,1.026,0,0,1,1.169-1c.835,0,1.146.5,1.152,1h-.368a.708.708,0,0,0-.818-.679c-.5,0-.753.3-.753.637,0,.286.134.45.727.659.808.28,1.031.617,1.031,1.078,0,.584-.388,1.095-1.306,1.095a1.12,1.12,0,0,1-1.267-1.105Z" transform="translate(1117.86 -1498.453)" fill="#fff"/>
    <path id="Trazado_31" data-name="Trazado 31" d="M-1034.01,1501.122a1.532,1.532,0,0,1-1.558,1.115c-.944,0-1.356-.687-1.356-1.533a2.011,2.011,0,0,1,1.814-2.25,1.181,1.181,0,0,1,1.3,1.157h-.383a.865.865,0,0,0-.948-.832c-.918,0-1.385.958-1.385,1.911,0,.667.3,1.221,1.008,1.221a1.157,1.157,0,0,0,1.123-.789Z" transform="translate(1113.59 -1498.453)" fill="#fff"/>
    <path id="Trazado_32" data-name="Trazado 32" d="M-1029.808,1501.041l-.635,1.2h-.4l1.977-3.679h.438l.677,3.679h-.378l-.217-1.2Zm1.416-.329c-.174-.935-.276-1.525-.31-1.8h-.005c-.146.31-.48.953-.933,1.8Z" transform="translate(1110.633 -1498.506)" fill="#fff"/>
    <path id="Trazado_33" data-name="Trazado 33" d="M-1023.083,1498.562h.372l-.628,3.35h1.872l-.106.329h-2.2Z" transform="translate(1107.197 -1498.506)" fill="#fff"/>
    <path id="Trazado_34" data-name="Trazado 34" d="M-1017.4,1498.562l-.686,3.679h-.371l.686-3.679Z" transform="translate(1104.615 -1498.506)" fill="#fff"/>
    <path id="Trazado_35" data-name="Trazado 35" d="M-1014.058,1502.24l-.777-1.589h-.005l-1.286,1.589h-.438l1.559-1.891-.875-1.787h.4l.727,1.508h.005l1.264-1.508h.422l-1.524,1.8.933,1.878Z" transform="translate(1103.696 -1498.506)" fill="#fff"/>
  </g>
  <g id="Grupo_3" data-name="Grupo 3" transform="translate(13.086 12.146)">
    <path id="Trazado_36" data-name="Trazado 36" d="M-1266.988,1500.3a20.3,20.3,0,0,1-9.973-2.606l-2.59,4.683a25.522,25.522,0,0,0,12.563,3.293,25.7,25.7,0,0,0,3.631-.262l-.821-5.305A20.516,20.516,0,0,1-1266.988,1500.3Z" transform="translate(1292.906 -1453.679)" fill="#e8a139"/>
    <path id="Trazado_37" data-name="Trazado 37" d="M-1237.8,1421.777l3.461-4.063a25.69,25.69,0,0,0-11.4-5.636l-1,5.276A20.438,20.438,0,0,1-1237.8,1421.777Z" transform="translate(1276.958 -1412.078)" fill="#e8a139"/>
    <path id="Trazado_38" data-name="Trazado 38" d="M-1240,1496.8l1.708,5.089a25.822,25.822,0,0,0,7.139-4.292l-3.623-3.931A20.528,20.528,0,0,1-1240,1496.8Z" transform="translate(1273.686 -1451.724)" fill="#e8a139"/>
    <path id="Trazado_39" data-name="Trazado 39" d="M-1285.018,1419.468l-2.7-4.692a26.179,26.179,0,0,0-14.377,14.8l5.088,1.557A20.808,20.808,0,0,1-1285.018,1419.468Z" transform="translate(1303.862 -1413.389)" fill="#e8a139"/>
    <path id="Trazado_40" data-name="Trazado 40" d="M-1300.233,1462.1h-5.3a26.362,26.362,0,0,0,8.477,19.431l3.524-4.011A20.972,20.972,0,0,1-1300.233,1462.1Z" transform="translate(1305.53 -1436.387)" fill="#e8a139"/>
  </g>
  <g id="Grupo_4" data-name="Grupo 4" transform="translate(6.761 5.622)">
    <path id="Trazado_41" data-name="Trazado 41" d="M-1298.976,1497.517l-3.716,3.25a31.8,31.8,0,0,0,18.818,10.785l.971-4.7A26.715,26.715,0,0,1-1298.976,1497.517Z" transform="translate(1310.476 -1447.071)" fill="#32599f"/>
    <path id="Trazado_42" data-name="Trazado 42" d="M-1298.976,1497.517l-3.716,3.25a31.8,31.8,0,0,0,18.818,10.785l.971-4.7A26.715,26.715,0,0,1-1298.976,1497.517Z" transform="translate(1310.476 -1447.071)" fill="#32599f" opacity="0.29"/>
    <path id="Trazado_43" data-name="Trazado 43" d="M-1242.661,1511.6l1.061,4.688a31.478,31.478,0,0,0,8.607-3.6l-2.126-4.4A26.391,26.391,0,0,1-1242.661,1511.6Z" transform="translate(1281.305 -1452.3)" fill="#32599f"/>
    <path id="Trazado_44" data-name="Trazado 44" d="M-1242.661,1511.6l1.061,4.688a31.478,31.478,0,0,0,8.607-3.6l-2.126-4.4A26.391,26.391,0,0,1-1242.661,1511.6Z" transform="translate(1281.305 -1452.3)" fill="#32599f" opacity="0.29"/>
    <path id="Trazado_45" data-name="Trazado 45" d="M-1310.425,1422.128a32.645,32.645,0,0,0-7.409,20.782h5.044a28.042,28.042,0,0,1,6.066-17.5Z" transform="translate(1317.834 -1410.437)" fill="#32599f"/>
    <path id="Trazado_46" data-name="Trazado 46" d="M-1310.425,1422.128a32.645,32.645,0,0,0-7.409,20.782h5.044a28.042,28.042,0,0,1,6.066-17.5Z" transform="translate(1317.834 -1410.437)" fill="#32599f"/>
    <path id="Trazado_47" data-name="Trazado 47" d="M-1253.662,1401.328a31.469,31.469,0,0,0-10.909-1.941,31.513,31.513,0,0,0-9.442,1.441l1.668,4.527a26.242,26.242,0,0,1,7.774-1.176,26.2,26.2,0,0,1,9.515,1.785Z" transform="translate(1296.54 -1399.387)" fill="#32599f"/>
    <path id="Trazado_48" data-name="Trazado 48" d="M-1253.662,1401.328a31.469,31.469,0,0,0-10.909-1.941,31.513,31.513,0,0,0-9.442,1.441l1.668,4.527a26.242,26.242,0,0,1,7.774-1.176,26.2,26.2,0,0,1,9.515,1.785Z" transform="translate(1296.54 -1399.387)" fill="#32599f" opacity="0.29"/>
  </g>
  <g id="Grupo_5" data-name="Grupo 5">
    <path id="Trazado_49" data-name="Trazado 49" d="M-1312.258,1409.5l-3.077-3.285a38.192,38.192,0,0,0-11.113,15.781l4.65,1.2A33.936,33.936,0,0,1-1312.258,1409.5Z" transform="translate(1328.78 -1397.082)" fill="#c8252c"/>
    <path id="Trazado_50" data-name="Trazado 50" d="M-1326.151,1465.167l-4.833.317a37.8,37.8,0,0,0,8.838,22.756l3.55-2.925A33.908,33.908,0,0,1-1326.151,1465.167Z" transform="translate(1330.985 -1425.729)" fill="#c8252c"/>
    <path id="Trazado_51" data-name="Trazado 51" d="M-1274.028,1392.7v-4.245a38.459,38.459,0,0,0-18.718,4.834l2.3,3.739A33.171,33.171,0,0,1-1274.028,1392.7Z" transform="translate(1312.403 -1388.45)" fill="#c8252c"/>
    <path id="Trazado_52" data-name="Trazado 52" d="M-1221.658,1404.039l2.82-3.514a38.471,38.471,0,0,0-10.446-6.427l-1.667,4A33.541,33.541,0,0,1-1221.658,1404.039Z" transform="translate(1282.375 -1391.194)" fill="#c8252c"/>
    <path id="Trazado_53" data-name="Trazado 53" d="M-1298.737,1514.9l-2.785,3.494a38.362,38.362,0,0,0,16.709,7.208l.409-4.257A33.271,33.271,0,0,1-1298.737,1514.9Z" transform="translate(1316.668 -1449.896)" fill="#c8252c"/>
    <path id="Trazado_54" data-name="Trazado 54" d="M-1233.523,1512.359a33.253,33.253,0,0,1-21.193,8.3l.094,4.243a38.408,38.408,0,0,0,23.777-8.914Z" transform="translate(1293.923 -1448.661)" fill="#c8252c"/>
  </g>
</svg>
